
        <svg xmlns="http://www.w3.org/2000/svg" xmlns:xlink="http://www.w3.org/1999/xlink" version="1.1" width="3157.48031496063" 
        height="846.0626431648086" viewBox="0 0 3157.48031496063 846.0626431648086">
			
			<g transform="scale(7.874015748031496) translate(10, 10)">
				<defs id="SvgjsDefs4603"><linearGradient id="SvgjsLinearGradient4610"><stop id="SvgjsStop4611" stop-color="#2d388a" offset="0"></stop><stop id="SvgjsStop4612" stop-color="#00aeef" offset="1"></stop></linearGradient><linearGradient id="SvgjsLinearGradient4613"><stop id="SvgjsStop4614" stop-color="#2d388a" offset="0"></stop><stop id="SvgjsStop4615" stop-color="#00aeef" offset="1"></stop></linearGradient><linearGradient id="SvgjsLinearGradient4616"><stop id="SvgjsStop4617" stop-color="#2d388a" offset="0"></stop><stop id="SvgjsStop4618" stop-color="#00aeef" offset="1"></stop></linearGradient></defs><g id="SvgjsG4604" featureKey="UqkkrJ-0" transform="matrix(1.4718745333736911,0,0,1.4718745333736911,-3.3750082797594727,-3.3750082797594727)" fill="url(#SvgjsLinearGradient4610)"><title xmlns="http://www.w3.org/2000/svg">002_Business_Icon_64x64</title><path xmlns="http://www.w3.org/2000/svg" d="M60.327,14.259,57,17.586,46.414,7l3.293-3.293L48.293,2.293,45,5.586,43.707,4.293a1,1,0,0,0-1.414,0l-8,8a1,1,0,0,0,0,1.414L35.586,15l-1,1H30.535A9.536,9.536,0,0,0,21,25.535v.051l-1.879,1.879a10.58,10.58,0,0,0-3.113,7.112L15,35.586l-1.293-1.293a1,1,0,0,0-1.414,0l-8,8a1,1,0,0,0,0,1.414L5.586,45,2.293,48.293l1.414,1.414L7,46.414,17.586,57l-3.293,3.293,1.414,1.414L19,58.414l1.293,1.293a1,1,0,0,0,1.414,0l8-8a1,1,0,0,0,0-1.414L28.414,49l1-1H34a3,3,0,0,0,3-3,2.966,2.966,0,0,0-.184-1H38a3,3,0,0,0,3-3,2.966,2.966,0,0,0-.184-1H42a3,3,0,0,0,3-3,2.966,2.966,0,0,0-.184-1H46a2.989,2.989,0,0,0,2-5.22V29.414l1-1,1.293,1.293a1,1,0,0,0,1.414,0l8-8a1,1,0,0,0,0-1.414L58.414,19l3.327-3.327ZM21,57.586,6.414,43,13,36.414,27.586,51ZM46,34H38v2h4a1,1,0,0,1,0,2H34v2h4a1,1,0,0,1,0,2H31v2h3a1,1,0,0,1,0,2H29a1,1,0,0,0-.707.293L27,47.586,16.414,37l1.293-1.293A1,1,0,0,0,18,35a8.6,8.6,0,0,1,2.535-6.121L21,28.414V38a1,1,0,0,0,1,1,7.56,7.56,0,0,0,7.28-5.562L29.673,32H46a1,1,0,0,1,0,2Zm.293-5.707A1,1,0,0,0,46,29v1H30.218l.546-2H31a5.006,5.006,0,0,0,5-5H34a3,3,0,0,1-3,3H30a1,1,0,0,0-.965.737l-1.684,6.176a5.564,5.564,0,0,1-4.351,4V25.535A7.535,7.535,0,0,1,30.535,18H35a1,1,0,0,0,.707-.293L37,16.414,47.586,27ZM51,27.586,36.414,13,43,6.414,57.586,21Z"></path><rect xmlns="http://www.w3.org/2000/svg" x="21" y="51" width="2" height="2" transform="translate(-30.325 30.786) rotate(-44.999)"></rect><rect xmlns="http://www.w3.org/2000/svg" x="41" y="11" width="2" height="2" transform="translate(3.816 33.213) rotate(-45)"></rect></g><g id="SvgjsG4605" featureKey="0kuQ8p-0" transform="matrix(2.091633466135458,0,0,2.091633466135458,106.11752968100437,8.374502151610843)" fill="url(#SvgjsLinearGradient4613)"><path d="M14.94 9.74 l-5.1 6.1 l-5.06 -6.1 l0 10.26 l-2.14 0 l0 -12.82 l-1.74 -2.1 l2.82 0 l6.1 7.32 l6.18 -7.32 l2.82 0 l-1.74 2.1 l0 12.82 l-2.14 0 l0 -10.26 z M31.1 9.64 l-4.28 6.18 l0 4.18 l-2.04 0 l0 -4.18 l-4.36 -6.18 l2.6 0 l2.76 4.08 l2.84 -4.08 l2.48 0 z M39.019999999999996 11.46 l2.64 0 q2.2 0 2.2 -2.12 q0 -1.1 -0.55 -1.59 t-1.65 -0.49 l-5.48 0 l0 4.8 q0.62 -0.36 1.4 -0.5 q0.58 -0.1 1.44 -0.1 z M36.18 20 l-2.18 0 l0 -14.92 l7.66 0 q1.32 0 2.3 0.51 t1.52 1.47 t0.54 2.27 t-0.54 2.29 t-1.53 1.51 t-2.29 0.53 l-2.64 0 q-1.72 0 -2.84 0.6 l0 5.74 z M55.379999999999995 16.56 l0.28 0 l-2.02 -3.84 l-2.46 4.74 q0.68 -0.36 1.54 -0.58 q1.24 -0.32 2.66 -0.32 z M52.58 10.7 l-0.68 -1.3 l2.22 0 l5.6 10.6 l-2.26 0 l-0.82 -1.56 l-1.24 0 q-1.18 0 -2.5 0.28 q-1.12 0.22 -2.04 0.6 q-0.84 0.32 -1.02 0.56 l-0.06 0.12 l-2.16 0 z M70.47999999999999 15.780000000000001 l0.64 1.08 q0.34 0.56 0.86 0.78 q0.36 0.14 0.88 0.14 l0.72 0 l0 2.22 l-0.9 0 q-0.66 0 -1.04 -0.08 q-0.56 -0.12 -1.02 -0.44 q-0.5 -0.38 -0.96 -1.12 l-1.6 -2.6 l-0.14 0 q-1.14 0 -1.74 0.14 q-0.48 0.1 -1.16 0.46 l0 3.64 l-2.1 0 l0 -10.36 l6.68 0 q0.94 0 1.68 0.4 t1.16 1.12 t0.42 1.6 q0 1.16 -0.61 1.91 t-1.77 1.11 z M67.92 13.7 l1.68 0 q0.5 0 0.83 -0.26 t0.33 -0.74 q0 -0.62 -0.48 -0.84 q-0.34 -0.16 -1.04 -0.16 l-4.22 0 l0 2.6 q1.1 -0.6 2.9 -0.6 z M85.69999999999999 11.7 l-3.9 0 l0 8.3 l-2.06 0 l0 -8.3 l-3.76 0 l0 -2.06 l9.72 0 l0 2.06 z M87.6 9.64 l2.58 0 l6.26 7.2 l0 -7.2 l2.06 0 l0 10.36 l-2.06 0 l-5.76 -6.74 l0 6.74 l-2.06 0 l0 -8.82 z M105.34 16.28 l0 1.64 l6.5 0 l0 2.08 l-8.54 0 l0 -10.36 l8.16 0 l0 2.06 l-6.12 0 l0 2.52 q0.62 -0.36 1.5 -0.5 q0.68 -0.1 1.74 -0.1 l1.52 0 l0 2.06 l-1.52 0 q-1.38 0 -2 0.12 q-0.54 0.1 -1.24 0.48 z M123.30000000000001 15.780000000000001 l0.64 1.08 q0.34 0.56 0.86 0.78 q0.36 0.14 0.88 0.14 l0.72 0 l0 2.22 l-0.9 0 q-0.66 0 -1.04 -0.08 q-0.56 -0.12 -1.02 -0.44 q-0.5 -0.38 -0.96 -1.12 l-1.6 -2.6 l-0.14 0 q-1.14 0 -1.74 0.14 q-0.48 0.1 -1.16 0.46 l0 3.64 l-2.1 0 l0 -10.36 l6.68 0 q0.94 0 1.68 0.4 t1.16 1.12 t0.42 1.6 q0 1.16 -0.61 1.91 t-1.77 1.11 z M120.74000000000001 13.7 l1.68 0 q0.5 0 0.83 -0.26 t0.33 -0.74 q0 -0.62 -0.48 -0.84 q-0.34 -0.16 -1.04 -0.16 l-4.22 0 l0 2.6 q1.1 -0.6 2.9 -0.6 z"></path></g><g id="SvgjsG4606" featureKey="Nh6iBa-0" transform="matrix(0.5996731236400681,0,0,0.5996731236400681,106.68071909939721,57.217515928535796)" fill="url(#SvgjsLinearGradient4616)"><path d="M4.38 14.02 l0 5.98 l-2.18 0 l0 -14.92 l10.5 0 l0 2.2 l-8.32 0 l0 4.52 q0.62 -0.36 1.38 -0.48 q0.56 -0.1 1.44 -0.1 l3.26 0 l0 2.22 l-3.26 0 q-0.82 0 -1.44 0.1 q-0.76 0.14 -1.38 0.48 z M31.656750000000002 20 l-2.14 0 l0 -14.92 l2.14 0 l0 14.92 z M49.913500000000006 7.18 l-1.74 -2.1 l2.82 0 l9.58 11.4 l0 -11.4 l2.2 0 l0 14.92 l-2.16 0 l-8.56 -10.26 l0 10.26 l-2.14 0 l0 -12.82 z M83.57025000000002 7.279999999999999 l0 10.54 l3.38 0 q1.4 0 2.52 -0.72 q1.06 -0.7 1.66 -1.88 t0.6 -2.58 q0 -1.46 -0.57 -2.68 t-1.63 -1.94 q-1.14 -0.74 -2.62 -0.74 l-3.34 0 z M80.25025000000001 7.279999999999999 l-0.96 -2.2 l7.6 0 q1.98 0 3.62 1.02 q1.58 0.98 2.5 2.68 t0.92 3.7 q0 1.5 -0.59 2.97 t-1.63 2.57 q-1 1.08 -2.14 1.54 q-1.1 0.44 -2.62 0.44 l-5.52 0 l0 -12.72 l-1.18 0 z M134.52375 11.64 q1.34 -1.4 2.42 -3.12 t1.72 -3.44 l2.5 0 q-1.02 2.38 -2.48 4.56 q-1.32 1.98 -3.08 3.9 l0 6.46 l-2.16 0 l0 -6.46 q-1.76 -1.92 -3.08 -3.9 q-1.46 -2.18 -2.48 -4.56 l2.5 0 q0.64 1.72 1.72 3.44 t2.42 3.12 z M170.18050000000002 12.440000000000001 q0 -1.6 -0.82 -2.9 q-0.78 -1.26 -2.13 -1.98 t-2.93 -0.72 q-1.64 0 -2.99 0.74 t-2.11 2.02 q-0.78 1.34 -0.78 2.98 q0 1.56 0.84 2.88 q0.8 1.24 2.15 1.97 t2.92 0.73 t2.92 -0.76 t2.13 -2.04 q0.8 -1.34 0.8 -2.92 z M172.34050000000002 12.559999999999999 q0 2.16 -1.12 3.98 q-1.08 1.74 -2.93 2.77 t-3.99 1.03 q-2.22 0 -4.08 -1.08 q-1.82 -1.04 -2.86 -2.86 q-1.08 -1.86 -1.08 -4.08 q0 -2.14 1.14 -3.94 q1.08 -1.72 2.93 -2.73 t3.97 -1.01 q2.18 0 4.04 1.06 q1.82 1.04 2.88 2.82 q1.1 1.86 1.1 4.04 z M195.65725000000003 20.34 q-2.1 0 -3.61 -0.73 t-2.3 -2.11 t-0.79 -3.3 l0 -9.12 l2.16 0 l0 9.12 q0 1.92 1.18 2.94 t3.36 1.02 t3.36 -1.02 t1.18 -2.94 l0 -9.12 l2.16 0 l0 9.12 q0 1.92 -0.79 3.3 t-2.3 2.11 t-3.61 0.73 z M222.15400000000005 7.26 l0 4.96 q0.62 -0.36 1.38 -0.48 q0.56 -0.1 1.44 -0.1 l2.84 0 q1.18 0 1.84 -0.54 q0.7 -0.58 0.7 -1.74 q0 -1.1 -0.74 -1.64 q-0.64 -0.46 -1.8 -0.46 l-5.66 0 z M228.53400000000005 17.64 l-1.82 -3.82 l-1.74 0 q-0.82 0 -1.44 0.1 q-0.76 0.14 -1.38 0.48 l0 5.6 l-2.18 0 l0 -14.92 l7.84 0 q1.38 0 2.44 0.52 t1.64 1.48 q0.62 1.02 0.62 2.4 q0 1.68 -0.9 2.76 t-2.54 1.5 l1.16 2.38 q0.5 0.74 0.78 1.04 q0.34 0.38 0.65 0.51 t0.81 0.13 l0.22 0 l0.48 -0.02 l0 2.22 q-1.16 0 -1.72 -0.08 q-0.94 -0.16 -1.6 -0.62 q-0.78 -0.56 -1.32 -1.66 z M274.04750000000007 11.46 l2.64 0 q2.2 0 2.2 -2.12 q0 -1.1 -0.55 -1.59 t-1.65 -0.49 l-5.48 0 l0 4.8 q0.62 -0.36 1.4 -0.5 q0.58 -0.1 1.44 -0.1 z M271.20750000000004 20 l-2.18 0 l0 -14.92 l7.66 0 q1.32 0 2.3 0.51 t1.52 1.47 t0.54 2.27 t-0.54 2.29 t-1.53 1.51 t-2.29 0.53 l-2.64 0 q-1.72 0 -2.84 0.6 l0 5.74 z M302.32425000000006 6.66 l-0.82 -1.84 l2.4 0 l7.18 15.18 l-2.44 0 l-0.98 -2.18 l-4.54 0 q-1.28 0 -2.3 0.24 q-0.9 0.22 -1.5 0.58 q-0.54 0.32 -0.72 0.66 l-0.38 0.7 l-2.36 0 z M303.92425000000003 15.620000000000001 l2.76 0 l-3.26 -6.3 l-3.3 7.14 q0.44 -0.38 1.34 -0.6 q1.02 -0.24 2.46 -0.24 z M329.48100000000005 7.26 l0 4.96 q0.62 -0.36 1.38 -0.48 q0.56 -0.1 1.44 -0.1 l2.84 0 q1.18 0 1.84 -0.54 q0.7 -0.58 0.7 -1.74 q0 -1.1 -0.74 -1.64 q-0.64 -0.46 -1.8 -0.46 l-5.66 0 z M335.86100000000005 17.64 l-1.82 -3.82 l-1.74 0 q-0.82 0 -1.44 0.1 q-0.76 0.14 -1.38 0.48 l0 5.6 l-2.18 0 l0 -14.92 l7.84 0 q1.38 0 2.44 0.52 t1.64 1.48 q0.62 1.02 0.62 2.4 q0 1.68 -0.9 2.76 t-2.54 1.5 l1.16 2.38 q0.5 0.74 0.78 1.04 q0.34 0.38 0.65 0.51 t0.81 0.13 l0.22 0 l0.48 -0.02 l0 2.22 q-1.16 0 -1.72 -0.08 q-0.94 -0.16 -1.6 -0.62 q-0.78 -0.56 -1.32 -1.66 z M368.61775000000006 7.279999999999999 l-5.26 0 l0 12.72 l-2.12 0 l0 -12.72 l-5.32 0 l0 -2.2 l12.7 0 l0 2.2 z M385.27450000000005 7.18 l-1.74 -2.1 l2.82 0 l9.58 11.4 l0 -11.4 l2.2 0 l0 14.92 l-2.16 0 l-8.56 -10.26 l0 10.26 l-2.14 0 l0 -12.82 z M418.1312500000001 14.02 l0 3.8 l9.2 0 l0 2.18 l-11.38 0 l0 -14.92 l10.5 0 l0 2.2 l-8.32 0 l0 4.52 q0.62 -0.36 1.38 -0.48 q0.56 -0.1 1.44 -0.1 l3.26 0 l0 2.22 l-3.26 0 q-0.82 0 -1.44 0.1 q-0.76 0.14 -1.38 0.48 z M446.4280000000001 7.26 l0 4.96 q0.62 -0.36 1.38 -0.48 q0.56 -0.1 1.44 -0.1 l2.84 0 q1.18 0 1.84 -0.54 q0.7 -0.58 0.7 -1.74 q0 -1.1 -0.74 -1.64 q-0.64 -0.46 -1.8 -0.46 l-5.66 0 z M452.8080000000001 17.64 l-1.82 -3.82 l-1.74 0 q-0.82 0 -1.44 0.1 q-0.76 0.14 -1.38 0.48 l0 5.6 l-2.18 0 l0 -14.92 l7.84 0 q1.38 0 2.44 0.52 t1.64 1.48 q0.62 1.02 0.62 2.4 q0 1.68 -0.9 2.76 t-2.54 1.5 l1.16 2.38 q0.5 0.74 0.78 1.04 q0.34 0.38 0.65 0.51 t0.81 0.13 l0.22 0 l0.48 -0.02 l0 2.22 q-1.16 0 -1.72 -0.08 q-0.94 -0.16 -1.6 -0.62 q-0.78 -0.56 -1.32 -1.66 z"></path></g>
			</g>
		</svg>
	